<svg width="51" height="50" viewBox="0 0 51 50" fill="none" xmlns="http://www.w3.org/2000/svg">
  <g clip-path="url(#clip0_625_9087)">
    <path d="M49.9492 13.4797C49.5821 12.4347 48.8711 11.7972 47.7855 11.5733C47.6423 11.5427 47.5004 11.5036 47.356 11.4779C46.3855 11.3078 46.082 11.0055 45.8715 10.0266C45.8501 9.91451 45.8531 9.79908 45.8803 9.68822C45.9076 9.57736 45.9584 9.47368 46.0294 9.38424C46.2546 9.08445 46.4641 8.77323 46.6572 8.45183C47.2299 7.39094 47.2275 6.34351 46.4822 5.37929C45.943 4.65986 45.2976 4.02654 44.5681 3.50102C43.6686 2.8733 42.7079 2.8892 41.7424 3.35908C41.3951 3.5414 41.0671 3.75827 40.7633 4.00638C40.6352 4.12199 40.4744 4.19512 40.3031 4.21571C40.1317 4.23631 39.9582 4.20336 39.8063 4.1214C39.674 4.05732 39.5374 4.00253 39.3975 3.95743C38.9264 3.80693 38.6632 3.50102 38.6363 2.99811C38.6045 2.68947 38.543 2.3846 38.4528 2.08773C38.3103 1.50395 37.9785 0.983809 37.5091 0.608568C37.0397 0.233327 36.4592 0.0241322 35.8583 0.0136713C35.2231 0.000211403 34.5892 0.000211403 33.9504 0.0124477C33.3742 0.0295343 32.8178 0.226259 32.3589 0.575103C31.9001 0.923948 31.5618 1.40746 31.3914 1.95802C31.2779 2.38384 31.1928 2.81674 31.1368 3.25385C31.1192 3.38349 31.0684 3.50638 30.9893 3.61058C30.9101 3.71478 30.8054 3.79675 30.6852 3.84853C30.6086 3.87682 30.5338 3.90992 30.4613 3.94764C29.8261 4.35756 29.2766 4.26579 28.699 3.77144C27.8631 3.05806 26.8877 2.83169 25.8181 3.20735C25.0202 3.48878 23.1955 5.34503 22.914 6.14406C22.6825 6.78093 22.7071 7.48274 22.9826 8.10187C23.1049 8.3882 23.2273 8.68921 23.4501 8.89968C24.199 9.60938 23.9016 10.3362 23.5333 11.0777C23.4847 11.1616 23.4169 11.2328 23.3354 11.2854C23.2539 11.3379 23.1611 11.3703 23.0646 11.38C22.7133 11.4558 22.356 11.495 22.006 11.5745C20.6255 11.8878 19.7896 12.9205 19.7835 14.3436C19.7835 14.9138 19.7835 15.4853 19.7835 16.0567C19.7742 16.6573 19.9653 17.2439 20.3265 17.7238C20.6877 18.2037 21.1986 18.5497 21.7783 18.7071C22.1565 18.8091 22.5419 18.8823 22.9312 18.9261C23.0777 18.9394 23.2177 18.9929 23.3356 19.0808C23.4535 19.1687 23.5448 19.2875 23.5994 19.4241C23.6801 19.6028 23.7462 19.7912 23.8343 19.9613C24.0546 20.3945 23.9751 20.7713 23.6789 21.1384C23.4162 21.4514 23.1949 21.7968 23.0205 22.1663C22.5885 23.1317 22.6962 24.0507 23.2959 24.8999C23.8156 25.6341 24.4552 26.2757 25.1879 26.7977C26.1559 27.4903 27.31 27.4989 28.3049 26.8552C28.5656 26.6864 28.8324 26.5261 29.0747 26.3327C29.2093 26.2116 29.3797 26.1376 29.5601 26.122C29.7405 26.1063 29.9211 26.1498 30.0745 26.2459C30.1739 26.3027 30.2794 26.3479 30.3891 26.3805C30.9141 26.52 31.1539 26.8601 31.2017 27.401C31.258 28.0201 31.3987 28.6246 31.7805 29.1446C32.3276 29.8886 33.0447 30.3034 33.9834 30.2998C34.5696 30.2998 35.157 30.2998 35.7445 30.2998C37.1494 30.2998 38.2007 29.4432 38.5066 28.0727C38.58 27.7375 38.629 27.3985 38.6877 27.0608C38.7379 26.7781 38.8994 26.6276 39.1454 26.4808C39.9091 26.0207 40.5394 26.077 41.2602 26.6656C42.5048 27.6824 44.0749 27.5221 45.125 26.3682C45.4921 25.9571 45.9131 25.5876 46.2962 25.1862C46.6955 24.7723 46.9525 24.2418 47.0297 23.6719C47.107 23.102 47.0005 22.5223 46.7257 22.017C46.5122 21.6328 46.2708 21.2648 46.0037 20.9157C45.9165 20.8166 45.8613 20.6935 45.8454 20.5625C45.8294 20.4314 45.8535 20.2987 45.9143 20.1816C45.9742 20.0643 46.0221 19.9413 46.0575 19.8145C46.2117 19.2222 46.574 18.9041 47.2006 18.8735C47.4765 18.8425 47.7487 18.7843 48.0132 18.6997C48.8968 18.4734 49.4976 17.924 49.8587 17.0931C49.9345 16.9157 49.9174 16.6563 50.1989 16.622V13.7832C49.9859 13.7905 49.9921 13.6045 49.9492 13.4797ZM47.657 15.8719C47.6668 16.2084 47.5249 16.3797 47.1883 16.4299C46.6241 16.5143 46.0661 16.6342 45.5031 16.7175C44.8606 16.8129 44.4225 17.1372 44.234 17.7698C44.017 18.5026 43.7233 19.2105 43.3578 19.8818C43.0323 20.4752 43.0934 21.0259 43.501 21.5655C43.8436 22.0194 44.1533 22.4991 44.4861 22.9629C44.6477 23.188 44.6979 23.4034 44.4861 23.6187C44.1068 24.0005 43.7257 24.3806 43.3431 24.7592C43.2746 24.8298 43.1829 24.8732 43.0849 24.8815C42.9235 24.8613 42.7714 24.795 42.6468 24.6906C42.1805 24.3615 41.7081 24.0421 41.2455 23.7117C40.7498 23.3532 40.2346 23.2884 39.69 23.5808C38.9867 23.9556 38.249 24.2621 37.4872 24.4961C36.9046 24.6772 36.573 25.0761 36.4836 25.6891C36.4029 26.2532 36.2817 26.8112 36.1948 27.3741C36.1385 27.7338 35.9831 27.9284 35.5829 27.9076C35.1448 27.8843 34.703 27.8892 34.2624 27.9076C33.8892 27.9222 33.6921 27.7852 33.6407 27.3961C33.5685 26.832 33.4474 26.274 33.3531 25.7124C33.2516 25.1165 32.9517 24.6931 32.3545 24.5095C31.5767 24.2727 30.8241 23.96 30.1076 23.5759C29.5752 23.2871 29.0747 23.3642 28.595 23.6983C28.1152 24.0323 27.6502 24.3395 27.1986 24.6857C26.8584 24.9464 26.5977 24.9146 26.3187 24.5989C26.0396 24.2832 25.7312 23.987 25.4204 23.6983C25.1548 23.4535 25.1426 23.2162 25.3506 22.9311C25.6958 22.4575 26.0237 21.9717 26.3664 21.4957C26.7225 21.0002 26.7898 20.4838 26.4961 19.9381C26.1184 19.2362 25.8118 18.4983 25.5807 17.7355C25.3922 17.1237 24.959 16.8117 24.3373 16.7162C23.7903 16.6318 23.2494 16.507 22.7011 16.436C22.3217 16.3859 22.154 16.2194 22.17 15.8315C22.192 15.3917 22.192 14.9511 22.17 14.5112C22.1443 14.0903 22.3474 13.9325 22.7305 13.8774C23.2787 13.7979 23.8197 13.6755 24.3667 13.596C24.9786 13.5054 25.3837 13.1946 25.5673 12.6036C25.807 11.8266 26.1205 11.0743 26.5035 10.357C26.7898 9.82474 26.7115 9.3255 26.3713 8.84584C26.0311 8.36617 25.73 7.90242 25.3923 7.44723C25.1561 7.13275 25.1475 6.87702 25.4473 6.60048C25.7729 6.30436 26.0813 5.98866 26.3823 5.66807C26.6271 5.40744 26.8608 5.38419 27.1509 5.59955C27.6208 5.9495 28.1116 6.27254 28.5864 6.61516C29.082 6.97368 29.5924 7.03364 30.1419 6.73752C30.8439 6.36101 31.5819 6.05563 32.3447 5.82592C32.9566 5.64237 33.2724 5.2141 33.3654 4.58638C33.4474 4.03942 33.5734 3.49857 33.6456 2.95039C33.6946 2.57351 33.8598 2.39975 34.249 2.41566C34.6883 2.43279 35.1301 2.43646 35.5695 2.41566C35.9586 2.39486 36.1349 2.57106 36.1924 2.93693C36.2829 3.5157 36.3955 4.09081 36.4885 4.66959C36.5815 5.24836 36.874 5.63258 37.4272 5.80389C38.2337 6.05871 39.0163 6.38381 39.7659 6.77545C40.2628 7.03119 40.745 6.96879 41.1916 6.65309C41.6812 6.30803 42.1854 5.97031 42.6712 5.61301C42.9527 5.40499 43.1877 5.38908 43.4398 5.6595C43.7616 6.00579 44.0994 6.33862 44.4409 6.6641C44.6734 6.88558 44.6795 7.10216 44.4996 7.35423C44.1484 7.84368 43.8094 8.34293 43.4594 8.83238C43.1094 9.32183 43.0445 9.84065 43.337 10.3888C43.7115 11.0918 44.0168 11.8294 44.2487 12.5914C44.4274 13.1775 44.83 13.503 45.4444 13.5911C45.9914 13.6706 46.5324 13.7942 47.0806 13.8725C47.4845 13.93 47.6925 14.1013 47.6644 14.5431C47.6362 14.9848 47.6448 15.4314 47.657 15.8719Z" fill="#232323" />
    <path d="M35.3297 35.2259C34.8854 35.3306 34.4361 35.4123 33.9835 35.4707C33.8286 35.4842 33.6811 35.5427 33.5591 35.6391C33.4371 35.7354 33.346 35.8653 33.2969 36.0127C33.1158 36.4667 32.9787 36.9402 32.7315 37.3661C32.5626 37.6585 32.6189 37.9143 32.7988 38.1847C33.0877 38.6203 33.4107 39.0327 33.691 39.4707C34.0664 40.0222 34.2582 40.678 34.2391 41.3448C34.22 42.0116 33.9909 42.6554 33.5845 43.1844C33.0473 43.9088 32.3705 44.5047 31.7182 45.119C30.4393 46.3218 28.704 46.3218 27.4239 45.3405C27.0885 45.0823 26.7385 44.8425 26.3848 44.6063C26.2742 44.523 26.1429 44.4714 26.0051 44.4572C25.8673 44.4429 25.7282 44.4666 25.6028 44.5255C25.1366 44.7225 24.6813 44.9465 24.1991 45.1006C23.8577 45.2095 23.7023 45.4347 23.6521 45.7736C23.5725 46.3059 23.4905 46.8382 23.362 47.3644C23.0597 48.5941 22.3059 49.3931 21.0882 49.7553C20.9487 49.7957 20.737 49.7553 20.7321 50.0001H17.3054C17.3054 49.7492 17.0753 49.7553 16.926 49.6929C15.8748 49.2341 15.1588 48.4925 14.8908 47.3533C14.7684 46.8125 14.6767 46.2655 14.5861 45.7186C14.5445 45.4592 14.4405 45.2524 14.1773 45.1582C13.6695 44.9771 13.1775 44.7605 12.6892 44.5329C12.3759 44.3873 12.103 44.4362 11.8227 44.643C11.4164 44.9428 11.0126 45.2475 10.5806 45.513C9.18296 46.3696 7.67523 46.2019 6.51628 45.0492C6.01778 44.5549 5.52132 44.0589 5.0269 43.5613C3.86306 42.3903 3.69662 40.8473 4.58144 39.4573C4.86169 39.0167 5.17866 38.6007 5.48216 38.1761C5.57206 38.0695 5.62736 37.9381 5.6407 37.7993C5.65403 37.6605 5.62477 37.5209 5.55681 37.3991C5.33494 36.9644 5.14396 36.5146 4.98529 36.0531C4.93848 35.8969 4.84574 35.7584 4.71915 35.6557C4.59257 35.5529 4.43797 35.4905 4.27548 35.4768C3.72743 35.4017 3.18402 35.2959 2.64782 35.1599C1.10949 34.7365 0.206314 33.5483 0.200195 31.9564C0.200195 31.2724 0.200195 30.5872 0.200195 29.9019C0.208762 28.3112 1.16333 27.101 2.71635 26.7144C3.24014 26.5847 3.77372 26.5125 4.3073 26.4231C4.5949 26.3754 4.84578 26.2775 4.93879 25.9631C5.09038 25.4977 5.27777 25.0449 5.49929 24.6085C5.67919 24.2255 5.65349 23.8988 5.37691 23.5696C5.08594 23.1961 4.81705 22.806 4.57165 22.4011C3.78351 21.1909 3.81288 19.8033 4.70871 18.6617C5.35922 17.8004 6.13758 17.0436 7.01682 16.4175C8.07174 15.6968 9.21968 15.6491 10.3517 16.2584C10.8828 16.5435 11.3601 16.9204 11.8509 17.2728C11.9628 17.3675 12.1001 17.4272 12.2457 17.4444C12.3913 17.4616 12.5387 17.4355 12.6696 17.3695C13.1138 17.1664 13.5618 16.9694 14.0256 16.8103C14.1822 16.7614 14.3207 16.6671 14.4237 16.5395C14.5268 16.4119 14.5897 16.2566 14.6044 16.0933C14.6714 15.5768 14.7712 15.0651 14.9031 14.5613C15.0609 14.0327 15.597 13.6754 16.0926 13.7353C16.6372 13.8002 17.0386 14.2517 17.0716 14.8439C17.0818 15.0724 17.0675 15.3013 17.0288 15.5267C16.9187 16.2022 16.7841 16.8727 16.6727 17.5506C16.5846 18.1208 16.2713 18.5087 15.7083 18.6629C14.721 18.9463 13.767 19.3352 12.863 19.8229C12.6292 19.9609 12.3588 20.024 12.0882 20.0036C11.8175 19.9833 11.5596 19.8805 11.3491 19.7091C10.7445 19.2661 10.1326 18.835 9.51339 18.4157C8.94432 18.029 8.51844 18.0682 8.0179 18.5381C7.6018 18.9284 7.20406 19.3383 6.80388 19.747C6.19197 20.3686 6.17117 20.7443 6.68761 21.4601C7.10616 22.0438 7.5247 22.6262 7.92366 23.2233C8.25776 23.725 8.28224 24.2341 7.98852 24.7455C7.51654 25.567 7.149 26.4442 6.89444 27.3568C6.69129 28.091 6.22746 28.4226 5.50419 28.5241C4.78092 28.6257 4.05275 28.7468 3.33805 28.912C2.74327 29.0503 2.51687 29.3439 2.50096 29.9509C2.48505 30.5578 2.49239 31.1904 2.50096 31.8096C2.5083 32.5437 2.75184 32.8472 3.47022 32.994C4.18859 33.1409 4.91309 33.2657 5.63759 33.3758C6.27641 33.4713 6.69129 33.7894 6.8614 34.4098C7.11091 35.3072 7.47059 36.1703 7.93223 36.9794C8.31406 37.661 8.25654 38.2777 7.79149 38.8907C7.36805 39.4499 6.97031 40.0275 6.58481 40.6136C6.21767 41.1703 6.24092 41.5215 6.68884 42.0244C7.11225 42.4977 7.56167 42.9471 8.03503 43.3704C8.55393 43.8391 8.90761 43.8599 9.48647 43.483C10.0853 43.0874 10.6727 42.675 11.2488 42.2459C11.8203 41.8189 12.3967 41.7699 13.0294 42.1125C13.8693 42.5844 14.7614 42.9569 15.6875 43.2224C16.2884 43.3851 16.6127 43.7865 16.6984 44.4056C16.8 45.1496 16.9431 45.8862 17.0925 46.6216C17.2332 47.3166 17.5428 47.5626 18.2392 47.5724C18.8107 47.5785 19.3822 47.5724 19.9525 47.5724C20.781 47.5663 21.0723 47.3374 21.2204 46.525C21.3427 45.852 21.4761 45.179 21.574 44.5011C21.6719 43.8232 22.0379 43.3827 22.7097 43.1857C23.6043 42.9307 24.4666 42.5739 25.2797 42.1223C25.8537 41.7968 26.3812 41.8225 26.9294 42.1945C27.5487 42.6179 28.1532 43.0511 28.7786 43.4781C29.3342 43.8587 29.7295 43.8452 30.2239 43.3741C30.6633 42.9605 31.0806 42.5261 31.5077 42.0966C32.0364 41.5595 32.0731 41.1728 31.6546 40.5328C31.2617 39.932 30.8383 39.352 30.4308 38.7659C30.0636 38.2385 29.9767 37.7111 30.3084 37.1201C30.7762 36.2655 31.1449 35.3603 31.4074 34.422C31.5297 33.9986 31.75 33.6181 32.2077 33.5043C33.1371 33.2529 34.0875 33.0867 35.047 33.0075C35.7592 32.9634 36.2549 33.3501 36.3418 33.9338C36.4287 34.5175 36.0064 35.0595 35.3297 35.2259Z" fill="#232323" />
    <path d="M27.6403 31.0119C27.6586 35.127 24.5147 38.7403 20.4051 39.3509C19.9658 39.4158 19.5289 39.4207 19.1299 39.4452C17.942 39.4442 16.7674 39.195 15.6816 38.7134C14.5957 38.2318 13.6226 37.5285 12.8246 36.6486C12.0267 35.7688 11.4216 34.7318 11.0482 33.6043C10.6747 32.4768 10.5412 31.2837 10.6562 30.1015C11.054 25.8359 14.8172 22.4073 19.0699 22.4342C19.4072 22.431 19.733 22.5568 19.9805 22.7858C20.2281 23.0149 20.3787 23.33 20.4014 23.6664C20.4124 23.9972 20.2923 24.3189 20.0672 24.5616C19.8421 24.8042 19.5304 24.9482 19.1997 24.9623C17.7005 25.032 16.3543 25.4517 15.2125 26.4563C13.3119 28.1168 12.6706 30.739 13.5848 33.1349C14.4513 35.4035 16.7153 36.9281 19.1874 36.8988C22.3155 36.8645 24.8243 34.5017 25.0617 31.3594C25.0996 30.87 25.1021 30.3707 25.517 30.0134C25.9086 29.6794 26.3614 29.5656 26.8362 29.776C27.0819 29.8732 27.2912 30.0444 27.4353 30.2658C27.5793 30.4872 27.651 30.748 27.6403 31.0119Z" fill="#232323" />
    <path d="M34.905 9.08692C33.7046 9.0891 32.5318 9.44674 31.5344 10.1147C30.5371 10.7827 29.76 11.7311 29.3012 12.8402C28.8424 13.9493 28.7224 15.1694 28.9564 16.3466C29.1904 17.5238 29.7679 18.6053 30.6161 19.4547C31.4642 20.3041 32.545 20.8832 33.722 21.1191C34.899 21.355 36.1195 21.237 37.2295 20.78C38.3395 20.323 39.2892 19.5476 39.9589 18.5515C40.6286 17.5554 40.9881 16.3833 40.9922 15.183C40.9945 14.3827 40.8387 13.5898 40.5337 12.8498C40.2287 12.1098 39.7805 11.4373 39.215 10.8709C38.6494 10.3045 37.9775 9.85531 37.2379 9.54918C36.4983 9.24304 35.7055 9.08595 34.905 9.08692ZM34.927 18.6887C33.9967 18.6927 33.1025 18.3287 32.4395 17.6761C31.7765 17.0235 31.3984 16.1352 31.3878 15.2051C31.3645 13.2644 32.9787 11.6223 34.8952 11.6308C35.3587 11.6288 35.8181 11.718 36.2471 11.8934C36.6761 12.0688 37.0664 12.327 37.3956 12.6532C37.7248 12.9794 37.9865 13.3673 38.1659 13.7946C38.3452 14.222 38.4385 14.6805 38.4406 15.1439C38.4427 15.6073 38.3535 16.0666 38.178 16.4956C38.0026 16.9245 37.7444 17.3147 37.4181 17.6439C37.0918 17.9731 36.7039 18.2348 36.2765 18.414C35.8491 18.5933 35.3905 18.6867 34.927 18.6887Z" fill="#232323" />
  </g>
  <defs>
    <clipPath id="clip0_625_9087">
      <rect width="50" height="50" fill="white" transform="translate(0.200195)" />
    </clipPath>
  </defs>
</svg>