<svg width="66" height="50" viewBox="0 0 66 50" fill="none" xmlns="http://www.w3.org/2000/svg">
  <g clip-path="url(#clip0_625_9081)">
    <path d="M53.4261 1.0437H3.48874C1.73031 1.0437 0.299805 2.48267 0.299805 4.25151V37.012C0.299805 38.7808 1.73031 40.2198 3.48874 40.2198H34.971C35.533 40.2198 35.9887 39.7615 35.9887 39.196C35.9887 38.6307 35.5331 38.1722 34.971 38.1722H3.48874C2.85271 38.1722 2.33524 37.6517 2.33524 37.0119V4.25151C2.33524 3.61171 2.85271 3.09119 3.48874 3.09119H53.4261C54.0622 3.09119 54.5796 3.61171 54.5796 4.25151V18.448C54.5796 19.0134 55.0353 19.4718 55.5974 19.4718C56.1594 19.4718 56.6152 19.0135 56.6152 18.448V4.25151C56.6151 2.48267 55.1846 1.0437 53.4261 1.0437Z" fill="#232323" />
    <path d="M51.2548 20.7002C43.5104 20.7002 37.21 27.038 37.21 34.8281C37.21 42.6182 43.5105 48.9561 51.2548 48.9561C58.9991 48.9561 65.2996 42.6183 65.2996 34.8281C65.2996 27.0379 58.9991 20.7002 51.2548 20.7002ZM51.2548 46.9086C44.6328 46.9086 39.2454 41.4893 39.2454 34.8281C39.2454 28.1669 44.6328 22.7477 51.2548 22.7477C57.8768 22.7477 63.2642 28.1669 63.2642 34.8281C63.2642 41.4893 57.8767 46.9086 51.2548 46.9086Z" fill="#232323" />
    <path d="M17.6016 8.68799H8.91684C7.75699 8.68799 6.81348 9.63709 6.81348 10.8038V17.3559C6.81348 18.5226 7.75699 19.4717 8.91684 19.4717H17.6016C18.7614 19.4717 19.7049 18.5226 19.7049 17.3559V10.8038C19.7049 9.63709 18.7614 8.68799 17.6016 8.68799ZM11.1558 17.4241H8.91684C8.87938 17.4241 8.84904 17.3936 8.84904 17.3559V10.8038C8.84904 10.7661 8.87938 10.7356 8.91684 10.7356H11.1559V17.4241H11.1558ZM17.6694 17.3559C17.6694 17.3936 17.639 17.4241 17.6016 17.4241H13.1913V15.1036H14.3448C14.9069 15.1036 15.3626 14.6453 15.3626 14.0798C15.3626 13.5143 14.907 13.056 14.3448 13.056H13.1913V10.7355H17.6016C17.639 10.7355 17.6694 10.766 17.6694 10.8037V17.3559Z" fill="#232323" />
    <path d="M44.1987 7.59595C42.9969 7.59595 41.8783 7.96003 40.9447 8.58297C39.9835 7.94228 38.8514 7.59595 37.6852 7.59595C34.4303 7.59595 31.7822 10.2596 31.7822 13.5338C31.7822 16.808 34.4302 19.4717 37.6852 19.4717C38.8874 19.4717 40.0064 19.1073 40.9404 18.4839C41.9017 19.1241 43.035 19.4717 44.1987 19.4717C47.4536 19.4717 50.1017 16.808 50.1017 13.5338C50.1017 10.2596 47.4537 7.59595 44.1987 7.59595ZM39.416 17.0112C38.8948 17.2748 38.3071 17.4241 37.6852 17.4241C35.5526 17.4241 33.8178 15.6789 33.8178 13.5338C33.8178 11.3888 35.5527 9.64343 37.6852 9.64343C38.2921 9.64343 38.8846 9.78735 39.4183 10.0564C38.7131 11.0346 38.2958 12.2357 38.2958 13.5337C38.2958 14.7962 38.6951 16.0085 39.416 17.0112ZM44.1987 17.4241C43.5928 17.4241 42.9998 17.2799 42.4658 17.0107C43.1709 16.0325 43.5881 14.8315 43.5881 13.5337C43.5881 12.9683 43.1325 12.5099 42.5703 12.5099C42.0082 12.5099 41.5525 12.9682 41.5525 13.5337C41.5525 14.3046 41.3276 15.0235 40.9414 15.6285C40.5476 15.0093 40.3312 14.2851 40.3312 13.5337C40.3312 11.3885 42.0662 9.6433 44.1986 9.6433C46.3311 9.6433 48.0661 11.3885 48.0661 13.5337C48.0661 15.6789 46.3313 17.4241 44.1987 17.4241Z" fill="#232323" />
    <path d="M16.516 25.0681H7.83126C7.26924 25.0681 6.81348 25.5264 6.81348 26.0919C6.81348 26.6574 7.26911 27.1157 7.83126 27.1157H16.516C17.078 27.1157 17.5338 26.6574 17.5338 26.0919C17.5338 25.5264 17.078 25.0681 16.516 25.0681Z" fill="#232323" />
    <path d="M33.8855 31.6204H7.83126C7.26924 31.6204 6.81348 32.0787 6.81348 32.6442C6.81348 33.2096 7.26911 33.668 7.83126 33.668H33.8856C34.4476 33.668 34.9034 33.2096 34.9034 32.6442C34.9034 32.0787 34.4476 31.6204 33.8855 31.6204Z" fill="#232323" />
    <path d="M29.5428 25.0681H20.8581C20.2961 25.0681 19.8403 25.5264 19.8403 26.0919C19.8403 26.6574 20.296 27.1157 20.8581 27.1157H29.5428C30.1049 27.1157 30.5606 26.6574 30.5606 26.0919C30.5606 25.5264 30.1049 25.0681 29.5428 25.0681Z" fill="#232323" />
    <path d="M36.0566 25.0681H33.8855C33.3234 25.0681 32.8677 25.5264 32.8677 26.0919C32.8677 26.6574 33.3233 27.1157 33.8855 27.1157H36.0566C36.6186 27.1157 37.0744 26.6574 37.0744 26.0919C37.0744 25.5264 36.6188 25.0681 36.0566 25.0681Z" fill="#232323" />
    <path d="M59.5739 29.7362C59.1764 29.3363 58.532 29.3363 58.1346 29.7362L49.0839 38.8403L44.3756 34.1042C43.9781 33.7043 43.3337 33.7043 42.9363 34.1042C42.5388 34.504 42.5388 35.1521 42.9363 35.5519L48.3643 41.0121C48.563 41.2121 48.8235 41.3119 49.0839 41.3119C49.3443 41.3119 49.6048 41.2121 49.8035 41.0121L59.5738 31.1839C59.9714 30.7841 59.9714 30.136 59.5739 29.7362Z" fill="#232323" />
  </g>
  <defs>
    <clipPath id="clip0_625_9081">
      <rect width="65" height="50" fill="white" transform="translate(0.299805)" />
    </clipPath>
  </defs>
</svg>