<svg width="51" height="50" viewBox="0 0 51 50" fill="none" xmlns="http://www.w3.org/2000/svg">
  <g clip-path="url(#clip0_625_9084)">
    <path d="M48.7757 3.71576L47.1693 1.75964C45.4722 -0.298464 42.4187 -0.594205 40.3633 1.10024L21.0334 17.0139C20.7639 16.9886 20.4921 16.9749 20.2182 16.9749C18.2271 16.9749 16.2827 17.6734 14.7434 18.9413C13.0504 20.3342 9.48199 24.3916 6.66907 28.5173C2.86381 34.0984 1.75148 37.7081 3.26904 39.5534C3.88916 40.306 4.89681 40.6874 6.26395 40.6874C11.844 40.6874 23.0675 34.4179 25.7019 32.2483C27.4787 30.7856 28.5792 28.7184 28.8011 26.4276L48.1177 10.5224C49.1155 9.70162 49.7335 8.54105 49.8575 7.25465C49.9816 5.96814 49.5969 4.71069 48.7757 3.71576ZM26.7278 26.2252C26.56 27.9629 25.7254 29.5307 24.3777 30.6403C21.6517 32.8851 10.9631 38.6042 6.26405 38.6042C6.23988 38.6042 6.21655 38.6037 6.1928 38.6034L21.4745 25.9063C21.9171 25.5387 21.9777 24.8819 21.6101 24.4394C21.2425 23.9969 20.5856 23.936 20.1431 24.3039L4.72503 37.1143C4.88702 35.8381 5.79611 33.4963 8.39059 29.6911C11.0144 25.8428 14.4782 21.8577 16.0678 20.5499C17.2352 19.5882 18.7092 19.0586 20.2184 19.0586C22.1808 19.0586 24.0202 19.9266 25.2657 21.4411C26.3763 22.7884 26.8955 24.4874 26.7278 26.2252ZM28.664 23.8421C28.3842 22.4882 27.7782 21.2137 26.874 20.1168C25.9692 19.0165 24.8259 18.1755 23.549 17.6415L26.2333 15.4317L31.2486 21.7139L28.664 23.8421ZM47.7838 7.05453C47.7131 7.78633 47.3617 8.44657 46.7938 8.91367L32.8571 20.3894L27.8418 14.1075L41.6881 2.70843C42.8577 1.74422 44.5955 1.91319 45.5605 3.08365L47.1673 5.04018C47.6355 5.60719 47.8545 6.32263 47.7838 7.05453Z" fill="#232323" />
    <path d="M35.7559 40.5922C32.7586 38.3391 27.8135 38.7785 21.0582 41.8981C12.0535 46.0563 7.6933 45.5257 5.62113 44.3485C3.6397 43.2227 3.40907 41.3116 3.39865 41.2148C3.34448 40.6454 2.84019 40.2252 2.27027 40.276C1.69723 40.3264 1.27357 40.8318 1.32388 41.405C1.33482 41.5281 1.62285 44.4397 4.53911 46.1296C8.16603 48.2315 14.0178 47.4442 21.9316 43.7895C27.8464 41.0582 32.1917 40.5266 34.4972 42.2526C37.1533 44.2409 36.5185 48.758 36.5121 48.8014C36.4256 49.3702 36.8165 49.9014 37.3853 49.988C37.4384 49.9961 37.4911 50 37.5433 50C38.0494 50 38.4934 49.6305 38.5718 49.1148C38.6077 48.8801 39.4046 43.3351 35.7559 40.5922Z" fill="#232323" />
  </g>
  <defs>
    <clipPath id="clip0_625_9084">
      <rect width="50" height="50" fill="white" transform="translate(0.600098)" />
    </clipPath>
  </defs>
</svg>